<svg width="1024" height="373" viewBox="0 0 1024 373" fill="none" xmlns="http://www.w3.org/2000/svg">
<path fill-rule="evenodd" clip-rule="evenodd" d="M0 169.761C0 156.05 11.1127 144.936 24.821 144.936H347.543C361.251 144.936 372.364 156.05 372.364 169.761V332.564C372.364 354.545 355.692 372.364 335.127 372.364H37.2364C16.6713 372.364 0 354.545 0 332.564V169.761ZM186.182 271.158C193.246 271.158 198.973 265.431 198.973 258.366C198.973 251.3 193.246 245.573 186.182 245.573C179.118 245.573 173.391 251.3 173.391 258.366C173.391 265.431 179.118 271.158 186.182 271.158ZM300.659 195.306C305.654 200.302 305.654 208.402 300.659 213.398L255.566 258.496L300.659 303.595C305.654 308.591 305.654 316.691 300.659 321.687C295.664 326.683 287.565 326.683 282.57 321.687L228.302 267.412C225.837 264.946 224.588 261.725 224.556 258.493C224.523 255.177 225.772 251.85 228.302 249.32C228.827 248.795 229.386 248.325 229.972 247.91L282.57 195.306C287.565 190.31 295.664 190.31 300.659 195.306ZM71.9658 213.398C66.9706 208.402 66.9706 200.302 71.9658 195.306C76.961 190.31 85.0599 190.31 90.0552 195.306L142.653 247.91C143.239 248.325 143.798 248.795 144.323 249.32C146.853 251.85 148.102 255.177 148.069 258.493C148.037 261.725 146.788 264.946 144.323 267.412L90.0551 321.687C85.0599 326.683 76.961 326.683 71.9657 321.687C66.9705 316.691 66.9705 308.591 71.9657 303.595L117.059 258.496L71.9658 213.398Z" fill="white"/>
<path d="M68.9262 0C83.9933 0 116.161 69.4299 130.588 102.401C134.13 110.495 128.153 119.399 119.319 119.399H18.5331C9.6991 119.399 3.72266 110.495 7.26424 102.401C21.691 69.4299 53.8592 0 68.9262 0Z" fill="white"/>
<path d="M303.521 0C318.552 0 350.638 69.2421 365.044 102.161C368.585 110.255 362.609 119.16 353.775 119.16H253.266C244.432 119.16 238.456 110.255 241.997 102.161C256.403 69.2421 288.489 0 303.521 0Z" fill="white"/>
<path d="M459.964 155.47C459.964 161.01 455.48 165.501 449.949 165.501H438.233C432.702 165.501 428.218 161.01 428.218 155.47V16.996C428.218 11.456 432.702 6.96497 438.233 6.96497H449.949C455.48 6.96497 459.964 11.456 459.964 16.996V71.1283C459.964 75.9542 466.102 77.9958 468.984 74.1284L516.027 10.996C517.917 8.45917 520.892 6.96497 524.053 6.96497H535.055C543.309 6.96497 548.019 16.4041 543.065 23.0166L508.856 68.6813C506.498 71.8293 506.195 76.0679 508.082 79.52L546.972 150.652C550.627 157.337 545.797 165.501 538.188 165.501H524.982C521.314 165.501 517.939 163.493 516.186 160.266L487.917 108.242C486.173 105.033 481.698 104.708 479.511 107.633L461.963 131.099C460.665 132.834 459.964 134.944 459.964 137.112V155.47Z" fill="white"/>
<path d="M673.777 160.662C673.777 163.335 671.614 165.501 668.946 165.501C667.395 165.501 665.939 164.756 665.031 163.497L658.009 153.764C656.268 151.351 652.829 150.988 650.506 152.844C648.911 154.119 647.266 155.353 645.571 156.546C642.4 158.758 639.045 160.711 635.505 162.406C631.966 164.027 628.316 165.317 624.555 166.275C620.868 167.233 617.107 167.713 613.272 167.713C604.94 167.713 597.086 166.312 589.712 163.511C582.412 160.711 575.996 156.657 570.465 151.35C565.009 145.97 560.695 139.41 557.524 131.671C554.353 123.933 552.768 115.125 552.768 105.249C552.768 96.0358 554.353 87.5967 557.524 79.9315C560.695 72.1927 565.009 65.5594 570.465 60.0316C575.996 54.5038 582.412 50.229 589.712 47.2072C597.086 44.1116 604.94 42.5638 613.272 42.5638C617.107 42.5638 620.905 43.0429 624.665 44.001C628.426 44.9592 632.076 46.2859 635.616 47.981C639.156 49.6762 642.511 51.6662 645.682 53.951C647.441 55.19 649.136 56.4832 650.765 57.8305C652.99 59.6702 656.315 59.4867 658.166 57.2702L664.985 49.1039C665.931 47.9718 667.328 47.3177 668.802 47.3177C671.55 47.3177 673.777 49.549 673.777 52.3015V160.662ZM643.359 105.249C643.359 101.121 642.548 97.1413 640.925 93.3087C639.377 89.4024 637.238 85.9753 634.51 83.0271C631.781 80.0052 628.574 77.6099 624.887 75.841C621.273 73.9984 617.402 73.0771 613.272 73.0771C609.143 73.0771 605.235 73.7773 601.547 75.1777C597.934 76.578 594.763 78.6418 592.035 81.3688C589.38 84.0958 587.279 87.4861 585.73 91.5398C584.181 95.5198 583.407 100.089 583.407 105.249C583.407 110.408 584.181 115.015 585.73 119.068C587.279 123.048 589.38 126.402 592.035 129.129C594.763 131.856 597.934 133.919 601.547 135.32C605.235 136.72 609.143 137.42 613.272 137.42C617.402 137.42 621.273 136.536 624.887 134.767C628.574 132.924 631.781 130.529 634.51 127.581C637.238 124.559 639.377 121.132 640.925 117.299C642.548 113.393 643.359 109.376 643.359 105.249Z" fill="white"/>
<path d="M756.294 165.501C748.994 165.501 742.136 164.138 735.72 161.411C729.305 158.61 723.663 154.814 718.796 150.024C714.003 145.159 710.206 139.521 707.403 133.109C704.675 126.696 703.311 119.842 703.311 112.545V82.3007C703.311 79.5879 701.115 77.3888 698.407 77.3888C692.99 77.3888 688.599 72.9905 688.599 67.5649V57.1415C688.599 51.716 692.99 47.3177 698.407 47.3177C701.115 47.3177 703.311 45.1185 703.311 42.4058V10.031C703.311 4.49103 707.794 0 713.325 0H723.383C728.914 0 733.397 4.49103 733.397 10.031V42.3022C733.397 45.0722 735.639 47.3177 738.404 47.3177H769.176C774.707 47.3177 779.191 51.8087 779.191 57.3487V67.3578C779.191 72.8978 774.707 77.3888 769.176 77.3888H738.404C735.639 77.3888 733.397 79.6343 733.397 82.4043V112.545C733.397 115.715 733.987 118.7 735.167 121.5C736.347 124.227 737.969 126.623 740.034 128.686C742.099 130.75 744.532 132.408 747.334 133.661C750.137 134.841 753.123 135.43 756.294 135.43H769.176C774.707 135.43 779.191 139.921 779.191 145.461V155.47C779.191 161.01 774.707 165.501 769.176 165.501H756.294Z" fill="white"/>
<path d="M888.697 155.47C888.697 161.01 884.213 165.501 878.682 165.501H807.112C799.437 165.501 794.615 157.209 798.401 150.522L835.566 84.8784C837.459 81.5348 835.048 77.3888 831.21 77.3888H799.935C794.404 77.3888 789.92 72.8978 789.92 67.3578V57.3487C789.92 51.8087 794.404 47.3177 799.935 47.3177H871.505C879.18 47.3177 884.002 55.61 880.216 62.297L843.051 127.941C841.158 131.284 843.569 135.43 847.407 135.43H878.682C884.213 135.43 888.697 139.921 888.697 145.461V155.47Z" fill="white"/>
<path d="M953.18 133.742C952.075 135.073 952.685 137.096 954.4 137.31C955.58 137.383 956.76 137.42 957.94 137.42C960.89 137.42 963.729 137.015 966.457 136.204C969.186 135.393 971.73 134.251 974.089 132.777C976.523 131.229 978.661 129.387 980.505 127.249C983.245 124.089 988.323 123.14 991.274 126.103L1001.33 136.202C1004.76 139.655 1005.29 145.155 1001.95 148.696C1000.55 150.168 999.086 151.569 997.539 152.898C993.926 156.067 989.981 158.758 985.704 160.969C981.5 163.18 977.039 164.838 972.32 165.944C967.674 167.123 962.881 167.713 957.94 167.713C949.607 167.713 941.754 166.165 934.38 163.069C927.079 159.974 920.664 155.662 915.133 150.134C909.676 144.606 905.362 138.047 902.191 130.455C899.021 122.79 897.435 114.388 897.435 105.249C897.435 95.8884 899.021 87.3388 902.191 79.5999C905.362 71.861 909.676 65.2645 915.133 59.8105C920.664 54.3564 927.079 50.1184 934.38 47.0966C941.754 44.0748 949.607 42.5638 957.94 42.5638C962.881 42.5638 967.711 43.1534 972.43 44.3327C977.15 45.512 981.611 47.2071 985.814 49.4182C990.091 51.6293 994.073 54.3564 997.76 57.5994C999.497 59.0917 1001.13 60.6739 1002.67 62.346C1005.75 65.6802 1005.48 70.7471 1002.59 74.2349L953.18 133.742ZM963.737 77.7544C965.036 76.0315 964.287 73.5238 962.143 73.2982C960.816 73.1508 959.415 73.0771 957.94 73.0771C953.811 73.0771 949.902 73.851 946.215 75.3987C942.602 76.8728 939.431 79.0102 936.702 81.811C934.048 84.6117 931.946 88.0021 930.398 91.9821C928.849 95.8884 928.075 100.311 928.075 105.249C928.075 106.354 928.112 107.607 928.185 109.008C928.333 110.408 928.517 111.845 928.738 113.319C929.033 114.72 929.365 116.083 929.734 117.41C930.219 119.157 932.385 119.339 933.476 117.892L963.737 77.7544Z" fill="white"/>
<path d="M428.684 262.569C428.684 256.207 429.895 250.238 432.319 244.663C434.742 239.087 438.021 234.226 442.155 230.08C446.361 225.863 451.243 222.539 456.803 220.109C462.363 217.678 468.314 216.463 474.658 216.463H535.33C540.676 216.463 545.01 220.819 545.01 226.192V237.507C545.01 242.88 540.676 247.236 535.33 247.236H474.658C472.52 247.236 470.524 247.629 468.671 248.415C466.818 249.202 465.178 250.31 463.753 251.739C462.398 253.097 461.329 254.706 460.545 256.564C459.761 258.423 459.369 260.424 459.369 262.569C459.369 264.713 459.761 266.75 460.545 268.68C461.329 270.539 462.398 272.183 463.753 273.612C465.178 274.971 466.818 276.043 468.671 276.829C470.524 277.615 472.52 278.008 474.658 278.008H505.343C511.687 278.008 517.639 279.224 523.199 281.654C528.83 284.013 533.712 287.301 537.846 291.518C542.052 295.664 545.331 300.561 547.683 306.208C550.106 311.783 551.318 317.752 551.318 324.114C551.318 330.476 550.106 336.444 547.683 342.02C545.331 347.595 542.052 352.492 537.846 356.709C533.712 360.855 528.83 364.143 523.199 366.574C517.639 369.004 511.687 370.219 505.343 370.219H446.917C441.571 370.219 437.237 365.864 437.237 360.491V349.175C437.237 343.802 441.571 339.446 446.917 339.446H505.343C507.482 339.446 509.478 339.053 511.331 338.267C513.184 337.481 514.788 336.409 516.142 335.05C517.568 333.621 518.672 331.977 519.457 330.118C520.241 328.26 520.633 326.258 520.633 324.114C520.633 321.969 520.241 319.968 519.457 318.109C518.672 316.251 517.568 314.643 516.142 313.284C514.788 311.855 513.184 310.747 511.331 309.961C509.478 309.174 507.482 308.781 505.343 308.781H474.658C468.314 308.781 462.363 307.566 456.803 305.136C451.243 302.705 446.361 299.417 442.155 295.271C438.021 291.054 434.742 286.157 432.319 280.582C429.895 274.935 428.684 268.93 428.684 262.569Z" fill="white"/>
<path d="M679.084 311.783C679.084 320.361 677.552 328.367 674.487 335.801C671.422 343.164 667.252 349.561 661.978 354.994C656.703 360.355 650.502 364.608 643.374 367.753C636.317 370.827 628.726 372.364 620.6 372.364C612.546 372.364 604.955 370.827 597.827 367.753C590.77 364.608 584.569 360.355 579.223 354.994C573.949 349.561 569.779 343.164 566.714 335.801C563.649 328.367 562.117 320.361 562.117 311.783C562.117 303.063 563.649 294.985 566.714 287.551C569.779 280.117 573.949 273.72 579.223 268.359C584.569 262.926 590.77 258.673 597.827 255.599C604.955 252.525 612.546 250.989 620.6 250.989C628.726 250.989 636.317 252.454 643.374 255.385C650.502 258.244 656.703 262.354 661.978 267.715C667.252 273.005 671.422 279.402 674.487 286.908C677.552 294.342 679.084 302.634 679.084 311.783ZM649.682 311.783C649.682 307.066 648.898 302.812 647.33 299.024C645.833 295.164 643.766 291.876 641.129 289.16C638.491 286.372 635.391 284.263 631.827 282.833C628.334 281.332 624.592 280.582 620.6 280.582C616.609 280.582 612.831 281.332 609.267 282.833C605.775 284.263 602.71 286.372 600.072 289.16C597.506 291.876 595.475 295.164 593.978 299.024C592.481 302.812 591.733 307.066 591.733 311.783C591.733 316.215 592.481 320.325 593.978 324.114C595.475 327.902 597.506 331.19 600.072 333.978C602.71 336.766 605.775 338.982 609.267 340.626C612.831 342.199 616.609 342.985 620.6 342.985C624.592 342.985 628.334 342.234 631.827 340.733C635.391 339.232 638.491 337.123 641.129 334.407C643.766 331.691 645.833 328.403 647.33 324.543C648.898 320.683 649.682 316.43 649.682 311.783Z" fill="white"/>
<path d="M791.053 272.023C793.809 275.488 793.126 280.418 790.009 283.559L780.391 293.253C777.386 296.281 772.174 295.09 769.536 291.733C767.683 289.303 765.581 287.265 763.228 285.621C760.948 283.977 758.453 282.726 755.744 281.868C753.036 281.011 750.256 280.582 747.405 280.582C743.413 280.582 739.635 281.404 736.071 283.048C732.579 284.692 729.514 287.015 726.876 290.017C724.31 292.948 722.279 296.451 720.782 300.525C719.285 304.599 718.537 309.103 718.537 314.035C718.537 318.038 719.285 321.791 720.782 325.293C722.279 328.796 724.31 331.87 726.876 334.514C729.514 337.159 732.579 339.232 736.071 340.733C739.635 342.234 743.413 342.985 747.405 342.985C750.256 342.985 753 342.592 755.637 341.805C758.274 341.019 760.734 339.911 763.015 338.482C765.367 336.98 767.434 335.193 769.216 333.121C771.864 330.056 776.773 329.135 779.625 332.009L789.343 341.803C792.665 345.152 793.174 350.486 789.94 353.92C788.596 355.348 787.176 356.706 785.681 357.996C782.188 361.07 778.375 363.679 774.241 365.823C770.178 367.967 765.866 369.576 761.304 370.648C756.813 371.792 752.18 372.364 747.405 372.364C739.35 372.364 731.759 370.862 724.631 367.86C717.575 364.787 711.373 360.605 706.027 355.315C700.753 350.026 696.583 343.843 693.518 336.766C690.453 329.689 688.921 322.112 688.921 314.035C688.921 305.243 690.453 297.022 693.518 289.374C696.583 281.726 700.753 275.078 706.027 269.431C711.373 263.712 717.575 259.209 724.631 255.921C731.759 252.633 739.35 250.989 747.405 250.989C752.18 250.989 756.849 251.596 761.411 252.811C766.044 254.027 770.427 255.814 774.562 258.172C778.767 260.46 782.616 263.283 786.109 266.643C787.88 268.313 789.528 270.106 791.053 272.023Z" fill="white"/>
<path d="M844.058 224.183C844.058 226.899 843.523 229.437 842.454 231.796C841.456 234.155 840.066 236.228 838.284 238.015C836.502 239.73 834.4 241.124 831.976 242.196C829.624 243.197 827.094 243.698 824.385 243.698C821.676 243.698 819.11 243.197 816.687 242.196C814.335 241.124 812.268 239.73 810.486 238.015C808.775 236.228 807.385 234.155 806.316 231.796C805.318 229.437 804.819 226.899 804.819 224.183C804.819 221.538 805.318 219.037 806.316 216.678C807.385 214.247 808.775 212.174 810.486 210.459C812.268 208.672 814.335 207.278 816.687 206.277C819.11 205.205 821.676 204.669 824.385 204.669C827.094 204.669 829.624 205.205 831.976 206.277C834.4 207.278 836.502 208.672 838.284 210.459C840.066 212.174 841.456 214.247 842.454 216.678C843.523 219.037 844.058 221.538 844.058 224.183ZM839.033 360.491C839.033 365.863 834.699 370.219 829.353 370.219H819.31C813.964 370.219 809.631 365.864 809.631 360.491V265.113C809.631 259.74 813.964 255.385 819.31 255.385H829.353C834.699 255.385 839.033 259.74 839.033 265.113V360.491Z" fill="white"/>
<path d="M972.252 365.526C972.252 368.118 970.161 370.219 967.582 370.219C966.083 370.219 964.675 369.496 963.797 368.275L957.01 358.835C955.327 356.495 952.004 356.143 949.758 357.944C948.217 359.18 946.627 360.376 944.988 361.534C941.923 363.679 938.68 365.573 935.258 367.217C931.837 368.79 928.309 370.04 924.674 370.97C921.11 371.899 917.475 372.364 913.768 372.364C905.714 372.364 898.123 371.005 890.995 368.289C883.938 365.573 877.737 361.641 872.391 356.495C867.116 351.277 862.947 344.915 859.882 337.409C856.817 329.904 855.284 321.362 855.284 311.783C855.284 302.848 856.817 294.664 859.882 287.229C862.947 279.724 867.116 273.291 872.391 267.93C877.737 262.569 883.938 258.423 890.995 255.492C898.123 252.49 905.714 250.989 913.768 250.989C917.475 250.989 921.145 251.453 924.781 252.382C928.416 253.312 931.944 254.598 935.365 256.242C938.787 257.887 942.03 259.817 945.095 262.032C946.796 263.234 948.433 264.488 950.008 265.795C952.159 267.579 955.373 267.401 957.162 265.252L963.754 257.332C964.667 256.234 966.018 255.599 967.443 255.599C970.099 255.599 972.252 257.763 972.252 260.433V365.526ZM942.85 311.783C942.85 307.78 942.066 303.92 940.497 300.203C939.001 296.415 936.934 293.091 934.296 290.232C931.659 287.301 928.558 284.978 924.994 283.262C921.502 281.475 917.76 280.582 913.768 280.582C909.776 280.582 905.999 281.261 902.435 282.619C898.942 283.977 895.877 285.979 893.24 288.623C890.674 291.268 888.642 294.556 887.146 298.488C885.649 302.348 884.9 306.78 884.9 311.783C884.9 316.787 885.649 321.255 887.146 325.186C888.642 329.046 890.674 332.298 893.24 334.943C895.877 337.588 898.942 339.59 902.435 340.948C905.999 342.306 909.776 342.985 913.768 342.985C917.76 342.985 921.502 342.127 924.994 340.411C928.558 338.624 931.659 336.301 934.296 333.442C936.934 330.511 939.001 327.187 940.497 323.47C942.066 319.682 942.85 315.786 942.85 311.783Z" fill="white"/>
<path d="M1024 360.491C1024 365.864 1019.67 370.219 1014.32 370.219H1004.28C998.932 370.219 994.598 365.864 994.598 360.491V219.437C994.598 214.064 998.932 209.708 1004.28 209.708H1014.32C1019.67 209.708 1024 214.064 1024 219.437V360.491Z" fill="white"/>
</svg>
